<svg id="Layer_1" data-name="Layer 1" xmlns="http://www.w3.org/2000/svg" viewBox="0 0 587 171"><defs><style>.cls-1{fill:#fff;}</style></defs><path class="cls-1" d="M152.64,76c-.48,3.55,4.59,1,4.59,4.85,0,3.35-5.61,2.86-8.1,2.94-20.82.62-57.5.5-77.45,0-3.92-.1,1.64-2.37.2,1.82-1.61,4.66-5.26,8-9,11.15-6.16,5-5.9,9.76.84,14.19,7.28,4.79,14.58,9.53,21.9,14.3a1.49,1.49,0,0,1,.46,2.1c-.06.08-.12.13-.17.13-10.18.64-8.93,5.92-6.35,13,3.1,8.54,5.13,17.45,7.6,26.54A1.53,1.53,0,0,1,85.64,169H3.35a1.53,1.53,0,0,1-1.47-2c2.87-9.91,5.52-19.6,8.6-29.17,1.73-5.38,2.92-9.69-5.34-9.4a3.21,3.21,0,0,1-1.6-.51,1.53,1.53,0,0,1-.11-2.64c7.85-5.13,15.33-10,22.74-14.91,6-4,6.3-8.83.75-13.23C16.38,88.83,12,78.47,15.39,65.31c.38-1.45,1.35-3.74-1.24-3.74-14.95,0-2.59-4.94-.15-6.7,3.57-2.56,5-5.82,6.28-9.81C26.4,25.37,39.2,5,39.32,6.8c0,.21,0-.48.14-.63,5.46-5.45,3-6.47,6.54-3C58.43,15.62,65.22,30.72,69.5,47.86c.71,2.84,2.6,4.49,4.65,6.32,2.56,2.29,16,8.07.34,8.07-3.71,0-.29,7.38-.29,12.75,0,2.63-9,.37,4.52.37,19.13,0,46.52.41,65.38,1,2.07.07,5.15.58,6.75-.47A1,1,0,0,1,152.64,76Z"/><path class="cls-1" d="M152.64,76.55l-1.79,0C153.21,72.13,158,63.19,165.2,65,162.77,69.58,153.89,76.69,152.64,76.55Z"/><path class="cls-1" d="M117.68,168.12,120,111.26H137c12.79,0,19.34,5.85,19.34,17s-6.55,17.79-19.34,17.79h-9.29l-.78,22.07Zm20-53.58h-9.68l-.78,21.37h10.46c7.64,0,12-3.82,12-10.69S145.37,114.54,137.73,114.54Z"/><path class="cls-1" d="M193.57,125.61l.08,7.18c-1.56-.94-3-.94-5.3-.94-7.88,0-11.16,5.77-11.16,15l1.56,21.29h-11c3.19-17.62,3.58-24,3-42.27h6.47v4.36c1.41-1.09,6.48-5,13.26-5A13,13,0,0,1,193.57,125.61Z"/><path class="cls-1" d="M222.36,124.44c12.16,0,19.58,8.35,19.58,22.39s-7.42,22.39-19.58,22.39-19.58-8.43-19.58-22.39S210.11,124.44,222.36,124.44Zm0,5.15c-7.49,0-12.17,6.08-12.17,16s4.6,11.55,12.17,11.55,12.16-1.64,12.16-11.55C234.52,135.83,229.84,129.59,222.36,129.59Z"/><path class="cls-1" d="M282.57,131.93l.78-23.09h7l-.78,59.28h-7v-6.39c-2.88,5.07-7.41,7.49-13.65,7.49-10.29,0-17.47-9-17.47-22.39s7.18-22.39,17.47-22.39C275.16,124.44,279.69,126.86,282.57,131.93Zm-26.05,14.12c1.17,7.41,4.29,10.45,11.7,10.45s11-1.56,11.23-11c-.23-10.29-3.58-16-11-16S256.52,135.75,256.52,146.05Z"/><path class="cls-1" d="M301.76,151.28V125.46h5.85V145c.55,8,3.2,12.09,9.52,12.09,7.56,0,11.7-5.15,12.24-13.5l.78-18.09h7.73l-.79,42.66h-6.94l.31-6.55c-3.35,5.15-7.8,7.65-13.72,7.65C307,169.22,301.76,163.05,301.76,151.28Z"/><path class="cls-1" d="M383,127.09v6.17A24.63,24.63,0,0,0,371,130c-9.12,0-14,6.47-14,16.85.7,7.33,4.53,9.83,13.65,10.3,4.06,0,8.19.54,12.17-1.64l.16,11a29.93,29.93,0,0,1-12.8,2.73c-12.79,0-21-8.66-21-22.39,0-13.89,8.19-22.39,21.45-22.39A29.05,29.05,0,0,1,383,127.09Z"/><path class="cls-1" d="M400,114.85h7.41L407,125.46h9.91v5.46H407l-.39,18.56c0,7,1.48,8.19,7.26,8.19h7.25v10.45h-7.25c-10.77,0-14.67-3.35-14.67-14l.39-23.16h-5.15v-5.46h5.15Z"/><path class="cls-1" d="M432.49,168.12c1-15,1.24-29.25,1.17-42.66h6.24a302,302,0,0,0,1.56,42.66Zm.78-50.39.39-8.89h6.24l.39,8.89Z"/><path class="cls-1" d="M472.42,124.44c12.17,0,19.58,8.35,19.58,22.39s-7.41,22.39-19.58,22.39-19.58-8.43-19.58-22.39S460.18,124.44,472.42,124.44Zm0,5.15c-7.49,0-12.17,6.08-12.17,16s4.61,11.55,12.17,11.55,12.17-1.64,12.17-11.55C484.59,135.83,479.91,129.59,472.42,129.59Z"/><path class="cls-1" d="M540.67,142.38l1.09,25.74h-10l1.48-25.89c0-8.12-2.42-12.09-8.66-12.09-8.58,0-12.63,5.14-12.63,13.49l1.17,24.49h-9.75l1.17-43.05h7v5.14c3.35-2.65,7.88-5.77,13.8-5.77C535.13,124.44,540.13,130.6,540.67,142.38Z"/><path class="cls-1" d="M583.57,126.7v5.85a28.87,28.87,0,0,0-12.79-3c-7,0-10.84,2.58-10.84,6.79,0,3.82,2.26,5.62,9.75,7.25l2.41.55c9.91,2.11,13.73,5.3,13.73,12.25,0,8-6.63,12.87-17.63,12.87a48.45,48.45,0,0,1-15-2.66V156.27a32.39,32.39,0,0,0,15.13,4c6.63,0,9.52-2,9.52-5.69a18.78,18.78,0,0,0-2.19-3.35c-.54-.71-3-1.49-7.41-2.5l-2.42-.55c-8.65-1.79-12.32-4.6-12.32-11.23,0-8,5.93-12.56,16.38-12.56A37.92,37.92,0,0,1,583.57,126.7Z"/><path class="cls-1" d="M219.69,48.8V42.64H207.45V34.45h21V57.7a36.2,36.2,0,0,1-21.3,6.39c-17.78,0-28.39-10.92-28.39-29.48S189.35,5.12,207.13,5.12A37.15,37.15,0,0,1,227,10.5v7.41a28.92,28.92,0,0,0-19.19-7.25c-13.89,0-20.91,7.8-20.91,23.17.55,14,7,17.86,20.91,17.86C213.22,51.69,217.82,50.75,219.69,48.8Z"/><path class="cls-1" d="M279,37.26v2.65H247.15c.15,11.39,5.77,13.34,15,13.81,5.38,0,10.45.08,15.45-2.58l.15,9.68A39.76,39.76,0,0,1,262,64.09c-13.58-.47-22.16-8.5-22.16-22,.55-14,8.12-22.78,21-22.78C272.19,19.79,278,25.09,279,37.26Zm-31-3.43,25-.08C272.11,29,267.74,23,260.8,23,253,23,247.93,28.68,247.93,33.83Z"/><path class="cls-1" d="M324.76,37.26,325.85,63h-10l1.48-25.9c0-8.11-2.42-12.09-8.66-12.09-8.58,0-12.64,5.15-12.64,13.5L297.22,63h-9.75l1.17-43.06h7v5.15c3.36-2.65,7.88-5.77,13.81-5.77C319.22,19.32,324.21,25.48,324.76,37.26Z"/><path class="cls-1" d="M356.89,19.32c12.17,0,19.58,8.34,19.58,22.39s-7.41,22.38-19.58,22.38-19.58-8.42-19.58-22.38S344.65,19.32,356.89,19.32Zm0,5.15c-7.49,0-12.17,6.08-12.17,16S349.33,52,356.89,52s12.17-1.64,12.17-11.54S364.38,24.47,356.89,24.47Z"/><path class="cls-1" d="M419.76,22v6.16a24.69,24.69,0,0,0-12-3.27c-9.13,0-14,6.47-14,16.85.7,7.33,4.52,9.82,13.65,10.29,4.05,0,8.19.55,12.17-1.64l.15,11A29.73,29.73,0,0,1,407,64.09c-12.79,0-21-8.66-21-22.38,0-13.89,8.19-22.39,21.45-22.39A29,29,0,0,1,419.76,22Z"/><path class="cls-1" d="M462.27,22v6.16a24.69,24.69,0,0,0-12-3.27c-9.13,0-14,6.47-14,16.85C437,49,440.82,51.53,450,52c4.05,0,8.19.55,12.17-1.64l.15,11a29.73,29.73,0,0,1-12.79,2.73c-12.79,0-21-8.66-21-22.38,0-13.89,8.19-22.39,21.45-22.39A29,29,0,0,1,462.27,22Z"/><path class="cls-1" d="M510.16,37.26,510.94,63h-8.89l1.09-25.51c.47-9.75-3.12-12.87-9.43-12.87-7.57,0-12.25,5.93-12.25,14.28l.78,24.1h-8.58l1.56-59.28h7L481.46,27c3.35-5.15,7.88-7.64,13.8-7.64C505.09,19.32,510.16,25.48,510.16,37.26Z"/><path class="cls-1" d="M522.33,63c1-15,1.25-29.25,1.17-42.67h6.24A302.17,302.17,0,0,0,531.3,63Zm.78-50.39.39-8.89h6.24l.39,8.89Z"/><path class="cls-1" d="M562.27,19.32c12.16,0,19.57,8.34,19.57,22.39s-7.41,22.38-19.57,22.38-19.58-8.42-19.58-22.38S550,19.32,562.27,19.32Zm0,5.15c-7.49,0-12.17,6.08-12.17,16S554.7,52,562.27,52s12.16-1.64,12.16-11.54S569.75,24.47,562.27,24.47Z"/></svg>